<svg width="20" height="20" viewBox="0 0 20 20" fill="none" xmlns="http://www.w3.org/2000/svg">
<path fill-rule="evenodd" clip-rule="evenodd" d="M1.5667 0.267989C1.20841 -0.0903063 0.627502 -0.0903063 0.269208 0.267989C-0.0890854 0.626285 -0.0890848 1.2072 0.269209 1.56549L8.70342 9.99974L0.269829 18.4334C-0.0884647 18.7917 -0.0884647 19.3726 0.269829 19.7309C0.628122 20.0892 1.20903 20.0892 1.56733 19.7309L10.0009 11.2972L18.4341 19.7305C18.7924 20.0888 19.3734 20.0888 19.7316 19.7305C20.0899 19.3722 20.0899 18.7913 19.7316 18.433L11.2984 9.99974L19.7323 1.56585C20.0906 1.20755 20.0906 0.626638 19.7323 0.268342C19.374 -0.089953 18.7931 -0.0899524 18.4348 0.268343L10.0009 8.70224L1.5667 0.267989Z" fill="#808080"/>
</svg>
