<svg width="20" height="21" viewBox="0 0 20 21" fill="none" xmlns="http://www.w3.org/2000/svg">
<g clip-path="url(#clip0_47_2872)">
<path d="M8.80758 0.012207C3.95121 0.012207 0 3.96342 0 8.81979C0 13.6764 3.95121 17.6274 8.80758 17.6274C13.6642 17.6274 17.6152 13.6764 17.6152 8.81979C17.6152 3.96342 13.6642 0.012207 8.80758 0.012207ZM8.80758 16.0014C4.8477 16.0014 1.62602 12.7797 1.62602 8.81982C1.62602 4.85994 4.8477 1.63822 8.80758 1.63822C12.7675 1.63822 15.9891 4.8599 15.9891 8.81979C15.9891 12.7797 12.7675 16.0014 8.80758 16.0014Z" fill="#86C011"/>
<path d="M19.762 18.6246L15.1007 13.9633C14.7831 13.6457 14.2687 13.6457 13.9511 13.9633C13.6335 14.2807 13.6335 14.7956 13.9511 15.1129L18.6124 19.7742C18.7712 19.933 18.9791 20.0124 19.1872 20.0124C19.395 20.0124 19.6032 19.933 19.762 19.7742C20.0796 19.4568 20.0796 18.9419 19.762 18.6246Z" fill="#86C011"/>
</g>
<defs>
<clipPath id="clip0_47_2872">
<rect width="20" height="20" fill="white" transform="translate(0 0.012207)"/>
</clipPath>
</defs>
</svg>
